<svg xmlns="http://www.w3.org/2000/svg" width="15.318" height="16.889" viewBox="0 0 15.318 16.889"><defs><style>.a{fill:#ffffff;}</style></defs><g transform="translate(-2.25 -1.25)"><path class="a" d="M17.525,4.772a.621.621,0,0,0-.033-.064.707.707,0,0,0-.042-.08L15.093,1.486a.589.589,0,0,0-.471-.236H5.2a.589.589,0,0,0-.471.236L2.368,4.628a.623.623,0,0,0-.043.082.591.591,0,0,0-.032.063.577.577,0,0,0-.042.209v11a2.162,2.162,0,0,0,2.16,2.16h11a2.162,2.162,0,0,0,2.16-2.16v-11A.577.577,0,0,0,17.525,4.772ZM5.49,2.428h8.837L15.8,4.392H4.017Zm9.917,14.532h-11a.983.983,0,0,1-.982-.982V5.57H16.39V15.979A.983.983,0,0,1,15.408,16.961Z"/><path class="a" d="M14.123,9.25a.589.589,0,0,0-.589.589,2.553,2.553,0,1,1-5.106,0,.589.589,0,0,0-1.178,0,3.731,3.731,0,0,0,7.463,0A.589.589,0,0,0,14.123,9.25Z" transform="translate(-1.072 -1.716)"/></g></svg>