<svg xmlns="http://www.w3.org/2000/svg" width="19.661" height="16.003" viewBox="0 0 19.661 16.003"><g transform="translate(-1.249 -3.25)"><path d="M5.5,19.253a.686.686,0,0,1-.671-.55A3.883,3.883,0,0,0,1.8,15.672a.686.686,0,1,1,.274-1.343,5.252,5.252,0,0,1,4.1,4.1.685.685,0,0,1-.535.808A.714.714,0,0,1,5.5,19.253Zm3.7,0a.685.685,0,0,1-.68-.61A7.505,7.505,0,0,0,1.86,11.978a.686.686,0,1,1,.152-1.363,8.87,8.87,0,0,1,7.876,7.876.686.686,0,0,1-.606.757A.721.721,0,0,1,9.2,19.253Zm9.191,0H12.909a.686.686,0,1,1,0-1.372H18.4a1.145,1.145,0,0,0,1.143-1.143V5.765A1.145,1.145,0,0,0,18.4,4.622H3.765A1.145,1.145,0,0,0,2.622,5.765V7.594a.686.686,0,0,1-1.372,0V5.765A2.517,2.517,0,0,1,3.765,3.25H18.4a2.517,2.517,0,0,1,2.515,2.515V16.738A2.517,2.517,0,0,1,18.4,19.253Z"/></g></svg>