<svg xmlns="http://www.w3.org/2000/svg" width="15.889" height="15.889" viewBox="0 0 15.889 15.889"><g transform="translate(-2.25 -2.25)"><path d="M15.9,2.25H4.491A2.243,2.243,0,0,0,2.25,4.491V15.9a2.243,2.243,0,0,0,2.241,2.241H15.9A2.243,2.243,0,0,0,18.139,15.9V4.491A2.243,2.243,0,0,0,15.9,2.25ZM3.472,15.9V4.491A1.02,1.02,0,0,1,4.491,3.472H15.9a1.02,1.02,0,0,1,1.019,1.019v6.673l-3.031-3.03a.61.61,0,0,0-.864,0L4.281,16.874A1,1,0,0,1,3.472,15.9ZM15.9,16.917H5.966l7.487-7.487,3.463,3.463V15.9A1.02,1.02,0,0,1,15.9,16.917Z"/><path d="M8.083,9.917A1.833,1.833,0,1,0,6.25,8.083,1.835,1.835,0,0,0,8.083,9.917Zm0-2.444a.611.611,0,1,1-.611.611A.611.611,0,0,1,8.083,7.472Z" transform="translate(-0.741 -0.741)"/></g></svg>