<svg xmlns="http://www.w3.org/2000/svg" width="13.747" height="16.889" viewBox="0 0 13.747 16.889"><g transform="translate(-3.25 -1.25)"><path d="M16.951,6.325a.578.578,0,0,0-.127-.189L12.111,1.423a.578.578,0,0,0-.189-.127.589.589,0,0,0-.227-.046H5.41A2.162,2.162,0,0,0,3.25,3.41V15.979a2.162,2.162,0,0,0,2.16,2.16h9.426A2.162,2.162,0,0,0,17,15.979V6.552A.589.589,0,0,0,16.951,6.325ZM12.284,3.262l2.7,2.7h-2.7Zm3.535,12.717a.983.983,0,0,1-.982.982H5.41a.983.983,0,0,1-.982-.982V3.41a.983.983,0,0,1,.982-.982h5.7V6.552a.589.589,0,0,0,.589.589h4.124Z"/><path d="M7.25,12.839a.589.589,0,0,0,.589.589h6.284a.589.589,0,1,0,0-1.178H7.839A.589.589,0,0,0,7.25,12.839Z" transform="translate(-0.858 -2.359)"/><path d="M14.123,16.25H7.839a.589.589,0,1,0,0,1.178h6.284a.589.589,0,1,0,0-1.178Z" transform="translate(-0.858 -3.217)"/><path d="M7.839,9.428H9.41a.589.589,0,0,0,0-1.178H7.839a.589.589,0,1,0,0,1.178Z" transform="translate(-0.858 -1.501)"/></g></svg>