<svg xmlns="http://www.w3.org/2000/svg" width="16.003" height="16.003" viewBox="0 0 16.003 16.003"><path d="M18.072,6.534l-4.1-4.1a.613.613,0,0,0-.435-.181H4.507A2.259,2.259,0,0,0,2.25,4.507V16a2.259,2.259,0,0,0,2.257,2.257H16A2.259,2.259,0,0,0,18.253,16V6.969A.613.613,0,0,0,18.072,6.534ZM13.739,17.022H6.764V11.688h6.976ZM17.022,16A1.027,1.027,0,0,1,16,17.022H14.97v-5.95a.616.616,0,0,0-.615-.615H6.148a.616.616,0,0,0-.615.615v5.95H4.507A1.027,1.027,0,0,1,3.481,16V4.507A1.027,1.027,0,0,1,4.507,3.481H5.533V6.969a.616.616,0,0,0,.615.615h6.565a.615.615,0,1,0,0-1.231H6.764V3.481h6.515l3.743,3.743Z" transform="translate(-2.25 -2.25)"/></svg>