<svg xmlns="http://www.w3.org/2000/svg" width="16" height="16" viewBox="0 0 16 16"><defs><style>.a{fill:#fff;}</style></defs><path class="a" d="M17.246,1.778a.561.561,0,0,0-.029-.149.47.47,0,0,0-.019-.051.534.534,0,0,0-.109-.164.544.544,0,0,0-.164-.109l-.052-.019a.545.545,0,0,0-.146-.028c-.016,0-.03,0-.045,0a.571.571,0,0,0-.172.029L1.623,6.492a.558.558,0,0,0-.042,1.038l6.5,2.889,2.889,6.5a.56.56,0,0,0,.511.331h.022a.558.558,0,0,0,.5-.373L17.22,1.994a.575.575,0,0,0,.029-.173C17.249,1.807,17.246,1.793,17.246,1.778ZM14.569,3.144,8.383,9.33,3.321,7.081ZM11.422,15.181,9.173,10.119l6.186-6.186Z" transform="translate(-1.249 -1.253)"/></svg>