<svg xmlns="http://www.w3.org/2000/svg" width="15.157" height="16.889" viewBox="0 0 15.157 16.889"><defs><style>.a,.b{fill:none;stroke:#000;stroke-linecap:round;stroke-linejoin:round;}.b{stroke-width:1.2px;}</style></defs><g transform="translate(-329 -495)"><g transform="translate(325.75 492.75)"><g transform="translate(3.25 12.643)"><path d="M17.757,20.746a.65.65,0,0,1-.65-.65V18.364a2.818,2.818,0,0,0-2.815-2.815H7.364a2.818,2.818,0,0,0-2.815,2.815V20.1a.65.65,0,0,1-1.3,0V18.364A4.119,4.119,0,0,1,7.364,14.25h6.929a4.119,4.119,0,0,1,4.114,4.114V20.1A.65.65,0,0,1,17.757,20.746Z" transform="translate(-3.25 -14.25)"/></g><g transform="translate(6.714 2.25)"><path d="M11.364,10.478a4.114,4.114,0,1,1,4.114-4.114A4.119,4.119,0,0,1,11.364,10.478Zm0-6.929a2.815,2.815,0,1,0,2.815,2.815A2.818,2.818,0,0,0,11.364,3.549Z" transform="translate(-7.25 -2.25)"/></g></g><g transform="translate(-7.854 3.444)"><line class="a" y1="4" transform="translate(351 497)"/><line class="b" x2="0.01" transform="translate(351 495)"/></g></g></svg>