<svg xmlns="http://www.w3.org/2000/svg" width="20.468" height="13.5" viewBox="0 0 20.468 13.5"><path d="M20.363,6.064a.653.653,0,0,0-.678.05L14.621,9.731V6.645a2.4,2.4,0,0,0-2.4-2.4H2.645a2.4,2.4,0,0,0-2.4,2.4v8.71a2.4,2.4,0,0,0,2.4,2.4h9.581a2.4,2.4,0,0,0,2.4-2.4V12.269l5.064,3.617a.653.653,0,0,0,1.033-.531V6.645A.654.654,0,0,0,20.363,6.064Zm-7.049,9.291a1.09,1.09,0,0,1-1.089,1.089H2.645a1.09,1.09,0,0,1-1.089-1.089V6.645A1.09,1.09,0,0,1,2.645,5.556h9.581a1.09,1.09,0,0,1,1.089,1.089Zm6.1-1.269L15.091,11l4.32-3.085Z" transform="translate(-0.25 -4.25)"/></svg>